<?xml version="1.0" standalone="no"?>
<!DOCTYPE svg PUBLIC "-//W3C//DTD SVG 20010904//EN"
 "http://www.w3.org/TR/2001/REC-SVG-20010904/DTD/svg10.dtd">
<svg version="1.0" xmlns="http://www.w3.org/2000/svg"
 width="512.000000pt" height="512.000000pt" viewBox="0 0 512.000000 512.000000"
 preserveAspectRatio="xMidYMid meet">

<g transform="translate(0.000000,512.000000) scale(0.100000,-0.100000)"
fill="#000000" stroke="none">
<path d="M0 2560 l0 -2560 2560 0 2560 0 0 2560 0 2560 -2560 0 -2560 0 0
-2560z m4200 1569 l0 -119 -102 0 c-336 0 -710 -106 -1011 -286 -85 -51 -274
-193 -320 -242 l-39 -40 49 -63 c28 -35 69 -93 93 -129 24 -36 45 -67 47 -69
2 -3 29 20 61 51 196 193 509 356 804 418 98 21 378 46 403 36 12 -4 15 -29
15 -126 l0 -120 -97 0 c-360 0 -712 -146 -986 -410 l-78 -75 35 -83 c19 -45
50 -128 68 -184 31 -99 32 -101 47 -77 207 315 571 507 964 509 l47 0 0 -125
0 -125 -84 0 c-424 0 -789 -315 -856 -740 -6 -39 -10 -305 -10 -662 l0 -598
-119 0 -119 0 -5 662 c-3 560 -7 678 -21 763 -31 186 -99 420 -118 409 -16
-10 -82 -157 -113 -249 -68 -201 -68 -205 -72 -927 l-4 -658 -119 0 -119 0 -4
653 c-4 614 -5 658 -25 747 -31 141 -58 223 -115 343 l-50 108 -14 -33 c-24
-57 -73 -238 -95 -353 -20 -103 -21 -151 -25 -788 l-4 -677 -119 0 -119 0 -3
633 c-4 610 -5 635 -25 709 -43 152 -111 274 -212 382 -165 173 -357 262 -594
273 l-117 6 0 125 0 125 110 -8 c375 -24 675 -187 880 -477 l33 -48 39 116
c22 64 52 146 69 183 l30 66 -88 83 c-87 83 -249 199 -346 249 -178 90 -378
141 -584 150 l-143 6 0 119 c0 96 3 120 15 124 29 12 311 -17 425 -42 298 -67
567 -210 794 -423 30 -28 50 -41 53 -34 6 16 127 188 160 227 l24 29 -28 29
c-15 17 -66 60 -113 98 -350 279 -799 440 -1226 440 l-104 0 0 121 0 122 178
-6 c244 -7 449 -47 679 -133 223 -82 498 -244 667 -390 43 -38 87 -75 97 -82
16 -12 29 -4 121 73 315 266 689 440 1093 510 94 16 389 35 428 26 15 -3 17
-17 17 -122z"/>
<path d="M2507 3198 c-67 -95 -137 -205 -137 -217 0 -5 13 -30 30 -54 46 -69
100 -166 130 -235 l27 -63 51 106 c29 58 72 138 97 177 l46 70 -42 67 c-56 90
-142 211 -151 211 -4 0 -27 -28 -51 -62z"/>
</g>
</svg>
